<svg width="99" height="102" viewBox="0 0 99 102" fill="none" xmlns="http://www.w3.org/2000/svg">
<path d="M0.0750001 100.533C4.53033 83.581 9.529 66.2487 15.071 48.536C20.7217 30.7147 26.2637 14.8493 31.697 0.939999H66.416C71.8493 14.8493 77.337 30.7147 82.879 48.536C88.5297 66.2487 93.5827 83.581 98.038 100.533L72.61 102C70.8713 95.9147 68.5893 86.7867 65.764 74.616H32.349C28.9803 87.4387 26.6983 96.5667 25.503 102L0.0750001 100.533ZM59.733 52.937C56.9077 43.157 53.7563 33.1597 50.279 22.945H47.834C44.574 31.9643 41.3683 41.9617 38.217 52.937H59.733Z" fill="white"/>
</svg>
