<svg width="160" height="160" viewBox="0 0 160 160" fill="none" xmlns="http://www.w3.org/2000/svg">
<path d="M0 32C0 14.3269 14.3269 0 32 0H128C145.673 0 160 14.3269 160 32V128C160 145.673 145.673 160 128 160H32C14.3269 160 0 145.673 0 128V32Z" fill="#333333"/>
<path d="M30.9886 129.533C35.4439 112.581 40.4426 95.2487 45.9846 77.536C51.6352 59.7147 57.1772 43.8493 62.6106 29.94H97.3296C102.763 43.8493 108.251 59.7147 113.793 77.536C119.443 95.2487 124.496 112.581 128.952 129.533L103.524 131C101.785 124.915 99.5029 115.787 96.6776 103.616H63.2626C59.8939 116.439 57.6119 125.567 56.4166 131L30.9886 129.533ZM90.6466 81.937C87.8212 72.157 84.6699 62.1597 81.1926 51.945H78.7476C75.4876 60.9643 72.2819 70.9617 69.1306 81.937H90.6466Z" fill="white"/>
</svg>
