<svg width="40" height="40" viewBox="9 11 20 20" fill="none" xmlns="http://www.w3.org/2000/svg">
<path d="M26.7017 26.6L22.745 22.6417C22.665 22.5633 22.57 22.51 22.4634 22.4767C23.135 21.5333 23.535 20.3767 23.535 19.1283C23.5334 15.9283 20.9384 13.3333 17.74 13.3333C14.5384 13.3333 11.9434 15.9283 11.9434 19.13C11.9434 22.33 14.5384 24.925 17.74 24.925C18.9884 24.925 20.1434 24.5267 21.09 23.8533C21.1217 23.9583 21.175 24.055 21.2534 24.135L25.2117 28.0917C25.5284 28.4067 26.1167 28.33 26.5284 27.9183C26.94 27.5067 27.0167 26.9167 26.7017 26.6ZM17.74 22.8167C15.705 22.8167 14.0517 21.165 14.0517 19.1283C14.0517 17.0933 15.705 15.44 17.74 15.44C19.7767 15.44 21.4284 17.0933 21.4284 19.1283C21.4267 21.165 19.775 22.8167 17.74 22.8167Z" fill="white"/>
</svg>
